<svg width="70" height="49" viewBox="0 0 70 49" fill="none" xmlns="http://www.w3.org/2000/svg">
<path d="M22.569 20.9723H17.3143V16.3232L22.569 12.614V20.9723ZM17.3143 20.9723H22.569V23.8037H17.3143V20.9723ZM15.1844 23.8077H6.71363L15.1844 17.8302V23.8077ZM24.7013 25.9376V8.50049L0.00463867 25.9376H24.7013Z" fill="#001931"/>
<path d="M47.431 12.6137L52.6857 16.3229V20.972H47.431V12.6137ZM47.431 20.9728H52.6857V23.8042H47.431V20.9728ZM54.8164 17.8267L63.2871 23.8042H54.8164V17.8267ZM70.0001 25.9381L45.3003 8.50098V25.9381H70.0001Z" fill="#001931"/>
<path d="M0 33.8608H4.16854V48.0527H6.8136V33.8608H11.0978V31.2803H0V33.8608Z" fill="#001931"/>
<path d="M16.8448 33.8609H19.3058C19.8001 33.8436 20.2917 33.9421 20.7412 34.1487C21.0975 34.3218 21.4064 34.579 21.6409 34.8983C21.852 35.187 22.0102 35.5108 22.1081 35.8547C22.1942 36.1503 22.2402 36.4561 22.245 36.7639C22.2411 37.0804 22.1913 37.3946 22.0971 37.6967C21.9937 38.0356 21.8275 38.3521 21.6071 38.6295C21.3568 38.9389 21.0362 39.184 20.672 39.3445C20.2118 39.5403 19.7144 39.6334 19.2145 39.6174H16.8448V33.8609ZM23.715 40.4495C24.157 39.9231 24.4865 39.3117 24.6832 38.6531C24.878 38.0107 24.9779 37.3432 24.9797 36.6719C24.9961 35.8823 24.8488 35.098 24.5471 34.3682C24.269 33.7215 23.8434 33.1489 23.3044 32.696C22.7324 32.2257 22.0749 31.8702 21.368 31.6492C20.5611 31.3952 19.7191 31.2707 18.8732 31.2803H14.1785V48.052H16.8448V42.2239H19.2562C19.3349 42.2239 19.4135 42.2239 19.4867 42.22L23.2211 48.0528H26.3199L22.2851 41.5766C22.8321 41.3 23.3183 40.9168 23.715 40.4495Z" fill="#001931"/>
<path d="M38.9932 41.8995C38.9996 42.5325 38.8223 43.1538 38.4827 43.6881C38.1365 44.2311 37.6623 44.6808 37.1016 44.9976C36.5048 45.3368 35.828 45.5098 35.1416 45.4986C34.4784 45.5073 33.8256 45.334 33.254 44.9976C32.7039 44.6753 32.2389 44.226 31.898 43.6873C31.5577 43.1532 31.3795 42.532 31.3852 41.8987V31.2808H28.7189V41.9451C28.6945 43.0733 28.9948 44.1847 29.5841 45.1471C30.1516 46.0574 30.9546 46.7974 31.9082 47.2887C32.9081 47.8042 34.0192 48.0661 35.144 48.0517C36.2721 48.0652 37.3866 47.8033 38.3907 47.2887C39.3484 46.7993 40.155 46.0587 40.7243 45.1463C41.3135 44.1839 41.6138 43.0725 41.5895 41.9444V31.2808H38.994L38.9932 41.8995Z" fill="#001931"/>
<path d="M54.5064 39.9957C54.1014 39.6392 53.6536 39.3346 53.1732 39.0889C52.6937 38.8426 52.199 38.6269 51.6922 38.4432C51.1154 38.2166 50.5685 37.9786 50.0515 37.729C49.5806 37.5115 49.1523 37.2116 48.7868 36.8434C48.6301 36.6876 48.5061 36.5021 48.4219 36.2977C48.3378 36.0934 48.2953 35.8744 48.2968 35.6534C48.2854 35.3657 48.3438 35.0794 48.467 34.8192C48.5903 34.5589 48.7748 34.3324 49.0047 34.159C49.572 33.769 50.253 33.5789 50.9403 33.6187C51.5918 33.6262 52.238 33.7372 52.8547 33.9474C53.5061 34.1601 54.1377 34.4293 54.7423 34.752L55.7648 32.7346C55.0685 32.3053 54.3247 31.9582 53.5484 31.7004C52.5786 31.4001 51.5667 31.2586 50.5517 31.2811C49.6457 31.2954 48.7542 31.5122 47.9429 31.9159C47.2161 32.2722 46.6042 32.8257 46.1771 33.5133C45.7553 34.2299 45.5422 35.0502 45.5621 35.8815C45.5421 36.5328 45.6831 37.179 45.9726 37.7628C46.242 38.2723 46.6191 38.717 47.0777 39.0661C47.5453 39.4242 48.0541 39.725 48.5933 39.9619C49.1402 40.2036 49.6646 40.4228 50.1664 40.6195C50.6581 40.8043 51.1344 41.0279 51.5907 41.288C51.9917 41.5123 52.3503 41.8051 52.6502 42.1532C52.9251 42.4859 53.0704 42.9069 53.0592 43.3384C53.0866 43.847 52.9246 44.3478 52.6046 44.7439C52.2895 45.0987 51.8839 45.3611 51.4311 45.5029C50.9796 45.6564 50.5063 45.7361 50.0295 45.7389C49.5477 45.7355 49.0686 45.6669 48.6051 45.5352C48.1073 45.398 47.623 45.2161 47.1579 44.9917C46.717 44.7838 46.2972 44.5338 45.9042 44.2453L44.7197 46.2816C45.2307 46.6514 45.7806 46.9642 46.3596 47.2144C46.9659 47.4761 47.5952 47.681 48.2394 47.8263C48.9085 47.9783 49.5927 48.0542 50.2788 48.0528C51.3125 48.0806 52.3376 47.8592 53.2676 47.4071C54.0455 47.0264 54.7029 46.4379 55.167 45.7066C55.6028 44.9944 55.828 44.1733 55.8167 43.3384C55.8336 42.6605 55.7134 41.9861 55.4635 41.3556C55.2505 40.8363 54.9234 40.3715 54.5064 39.9957Z" fill="#001931"/>
<path d="M69.5974 41.3546C69.3843 40.8352 69.0572 40.3705 68.6402 39.9947C68.2352 39.6385 67.7873 39.3341 67.3071 39.0886C66.8283 38.8424 66.3344 38.6267 65.8284 38.4429C65.2516 38.2163 64.7047 37.9783 64.1877 37.7287C63.7152 37.5121 63.2853 37.2127 62.9183 36.8447C62.7616 36.6888 62.6376 36.5033 62.5535 36.299C62.4694 36.0947 62.4268 35.8756 62.4283 35.6547C62.4169 35.3669 62.4753 35.0807 62.5986 34.8205C62.7219 34.5603 62.9063 34.3337 63.1362 34.1603C63.7034 33.7686 64.3851 33.5771 65.0733 33.616C65.7249 33.6236 66.371 33.7346 66.9877 33.9448C67.6392 34.1575 68.2708 34.4267 68.8754 34.7494L69.8978 32.732C69.1997 32.3032 68.4541 31.9572 67.6759 31.7008C66.7062 31.4006 65.6942 31.2591 64.6793 31.2816C63.7732 31.2958 62.8818 31.5127 62.0704 31.9163C61.3437 32.2727 60.7318 32.8262 60.3047 33.5138C59.8846 34.2303 59.6729 35.05 59.6936 35.8804C59.6735 36.5317 59.8145 37.178 60.1041 37.7617C60.3725 38.2708 60.7482 38.7155 61.2053 39.065C61.6729 39.4228 62.1817 39.7233 62.7209 39.9601C63.2678 40.2018 63.7921 40.421 64.2939 40.6176C64.7856 40.8025 65.2619 41.026 65.7183 41.2861C66.1192 41.5105 66.4777 41.8033 66.7777 42.1513C67.054 42.4852 67.1997 42.9081 67.1875 43.3413C67.2146 43.85 67.0524 44.3507 66.7321 44.7468C66.417 45.1015 66.0114 45.3639 65.5586 45.5058C65.1071 45.6592 64.6339 45.7389 64.1571 45.7417C63.6753 45.7382 63.1961 45.6697 62.7327 45.538C62.2348 45.4007 61.7505 45.2185 61.2855 44.9938C60.8448 44.7853 60.4252 44.5348 60.0326 44.2458L58.8528 46.2844C59.3642 46.6531 59.9144 46.9648 60.4935 47.2141C61.0998 47.4757 61.7291 47.6806 62.3732 47.826C63.0424 47.9779 63.7265 48.0539 64.4127 48.0525C65.4463 48.0803 66.4714 47.8588 67.4014 47.4068C68.1794 47.0261 68.8368 46.4376 69.3009 45.7063C69.7366 44.9941 69.9619 44.173 69.9505 43.3381C69.9675 42.6599 69.8474 41.9852 69.5974 41.3546Z" fill="#001931"/>
<path d="M40.7888 23.8098H36.0595V4.12327L40.7888 7.68934V23.8098ZM29.1995 7.68619L33.9288 4.12012V23.8066H29.1987L29.1995 7.68619ZM34.9938 0.648438L27.0688 6.62596V25.9389H42.9187V6.62754L34.9938 0.648438Z" fill="#001931"/>
</svg>
